<?xml version="1.0" encoding="UTF-8" standalone="no"?>
<!-- Generator: Adobe Illustrator 24.0.1, SVG Export Plug-In . SVG Version: 6.00 Build 0)  -->

<svg
   version="1.1"
   id="Layer_1"
   x="0px"
   y="0px"
   width="512"
   height="512"
   viewBox="0 0 512 512"
   style="enable-background:new 0 0 2048 2048;"
   xml:space="preserve"
   sodipodi:docname="com.iotserv.openiothub.svg"
   inkscape:version="1.4 (e7c3feb1, 2024-10-09)"
   xmlns:inkscape="http://www.inkscape.org/namespaces/inkscape"
   xmlns:sodipodi="http://sodipodi.sourceforge.net/DTD/sodipodi-0.dtd"
   xmlns="http://www.w3.org/2000/svg"
   xmlns:svg="http://www.w3.org/2000/svg"><defs
   id="defs7" /><sodipodi:namedview
   id="namedview7"
   pagecolor="#ffffff"
   bordercolor="#000000"
   borderopacity="0.25"
   inkscape:showpageshadow="2"
   inkscape:pageopacity="0.0"
   inkscape:pagecheckerboard="0"
   inkscape:deskcolor="#d1d1d1"
   inkscape:zoom="0.49267578"
   inkscape:cx="699.24282"
   inkscape:cy="496.26958"
   inkscape:window-width="2384"
   inkscape:window-height="1188"
   inkscape:window-x="951"
   inkscape:window-y="85"
   inkscape:window-maximized="0"
   inkscape:current-layer="g4" />
<style
   type="text/css"
   id="style1">
	.st0{fill:#FFFFFF;}
	.st1{fill:#E17750;}
</style>
<g
   id="g1"
   transform="matrix(0.55178331,0,0,0.54771841,697.77797,-100.6032)">
	<path
   class="st0"
   d="m -818.3,350.35 c 9.49,-1.13 19.1,-0.63 28.63,-0.31 9.73,0.44 18.37,5.27 27.35,8.47 8.61,3.59 17.29,7.07 25.58,11.37 6.34,3 12.11,7.3 19.02,8.97 14.17,3.54 26.59,11.49 39.94,17.1 7.84,3.64 15.4,8.05 23.83,10.23 4.72,1.21 9.27,3.01 13.57,5.32 12.15,6.25 24.41,12.52 37.53,16.49 13.02,4.11 24.87,11 37.13,16.86 7.4,3.69 15.74,4.98 23.01,8.98 9.55,5.05 19.49,9.27 29.4,13.56 6.4,2.28 13.17,3.63 19.24,6.83 10.64,5.51 21.74,10.07 32.37,15.6 9.08,4.79 19.39,7.76 26.97,14.99 5.92,6.36 12.27,13.29 13.58,22.24 0.88,8.87 0.72,18.44 -4.01,26.31 -5.49,9.33 -13.97,18.03 -25.12,19.73 -8.44,1.23 -17.33,1.42 -25.51,-1.3 -9.4,-3.62 -18.62,-7.71 -27.52,-12.44 -8.27,-4.52 -17.43,-6.86 -26.32,-9.78 -2.38,-0.47 -5.2,-1.9 -7.38,-0.21 -2.98,2.11 -3.04,6.11 -3.12,9.4 -0.02,71.69 0.01,143.39 -0.02,215.08 -0.61,10.64 -0.62,21.31 -0.23,31.97 -0.23,8.33 -0.5,16.69 0.15,25.02 0.63,10.77 -1.11,21.53 -0.04,32.29 0.72,9.29 -0.78,18.58 0.03,27.86 0.3,8.89 0.04,17.78 -0.23,26.66 0.81,8.73 -0.09,17.47 -0.45,26.21 -0.49,8.31 -3.46,16.5 -8.81,22.93 -6.37,7.66 -13.69,15.19 -23.27,18.65 -5.21,1.91 -10.43,4.01 -15.94,4.9 -14.2,1.61 -28.5,1.08 -42.76,1.16 -97,-0.07 -194,0.32 -291,0.19 -14.67,0.22 -29.34,0.42 -44.01,0.02 -11.68,-0.23 -23.37,0.58 -35.05,-0.05 -5.92,-0.05 -11.72,-1.52 -17.22,-3.63 -6.65,-2.58 -13.39,-5.38 -18.79,-10.16 -6.24,-5.5 -11.89,-11.88 -15.62,-19.36 -3.9,-7.59 -4.14,-16.36 -4.19,-24.7 -0.02,-126.68 0.03,-253.37 -0.02,-380.05 -0.22,-3.32 -0.38,-8.1 -4.17,-9.31 -4.6,0.06 -8.58,2.75 -12.64,4.59 -8.17,4.17 -17.62,4.88 -25.65,9.39 -14.04,6.78 -28.07,15.6 -44.17,15.79 -7.3,0.09 -15.1,-0.36 -21.38,-4.53 -7.89,-5.32 -15.54,-12.62 -17.55,-22.28 -1.58,-9.11 -1.58,-18.79 1.51,-27.58 4.89,-10.76 14.44,-19.17 25.32,-23.58 10,-4.08 19.33,-9.61 29.29,-13.77 8.85,-4.54 18.67,-6.72 27.42,-11.49 15.7,-6.23 30.15,-15.26 46.11,-20.88 4.8,-1.63 9.89,-2.4 14.47,-4.64 14.27,-7.03 28.4,-14.6 43.61,-19.41 10.5,-4.16 20.68,-9.09 30.72,-14.26 4.82,-2.51 9.96,-4.27 15.15,-5.86 8.46,-3.23 16.41,-7.65 24.74,-11.21 8.96,-3.88 17.26,-9.22 26.5,-12.49 6.4,-2.34 13.26,-3.43 19.34,-6.64 12.72,-6.64 25.67,-12.95 39.18,-17.85 7.29,-2.12 13.9,-6.29 21.5,-7.39 z m 10.97,84.73 c -10.5,3.26 -20.24,8.53 -30.39,12.7 -11.37,5.51 -23.28,9.8 -34.7,15.2 -14.45,6.31 -28.88,12.62 -43.46,18.6 -16.36,7.97 -33.39,14.44 -49.86,22.17 -5.17,2.2 -9.68,7.03 -9.32,12.99 -0.02,123.02 0,246.04 -0.01,369.06 0.49,6.27 -1.41,14 3.35,19.02 2.73,2.38 6.58,2.31 9.99,2.32 13.69,-0.13 27.38,0.03 41.07,0.04 5.84,0.04 11.83,1.03 17.54,-0.71 2.49,-0.9 3.61,-3.59 4.1,-5.99 0.99,-4.83 0.52,-9.79 0.67,-14.68 0.09,-44.67 -0.08,-89.33 -0.07,-134 -0.1,-11.44 0.44,-23.07 3.71,-34.1 2.34,-8.1 7.01,-15.23 11.98,-21.94 8.87,-12.1 21.74,-21.06 35.79,-26.12 18.12,-5.95 37.47,-4.18 56.24,-4.47 15.87,-0.34 32.36,0.77 46.83,7.9 10.26,5.49 19.71,12.85 26.58,22.32 11.2,14.2 16.59,32.42 16.3,50.39 -0.08,49.68 -0.1,99.36 -0.08,149.05 0.09,3.94 0.17,9.14 4.21,11.21 6.07,2.41 12.75,1.32 19.11,1.15 15.03,-0.05 30.07,0.01 45.11,-0.01 3.24,0.02 6.9,-0.7 9.08,-3.31 1.89,-2.96 1.93,-6.63 2.03,-10.02 -0.15,-120.35 0.24,-240.7 0.13,-361.05 -0.16,-6 0.62,-12.2 -1.26,-18.01 -1.52,-4.91 -6.48,-7.33 -10.83,-9.27 -9.58,-4.01 -19.24,-7.86 -28.62,-12.34 -21.7,-10.33 -44.27,-18.73 -66,-29 -18.24,-7.69 -36.21,-16 -54.53,-23.5 -7.8,-3.11 -16.01,-7.93 -24.69,-5.6 z m -7.03,307.3 c -5.85,0.7 -8.08,7.21 -7.74,12.34 -0.25,47.05 0.26,94.1 0.04,141.15 -0.07,4.44 0.63,10.86 5.96,11.9 7.71,1.43 15.62,0.56 23.42,0.82 4.63,-0.13 10.62,0.2 13.42,-4.31 1.98,-4.19 1.05,-9.03 1.55,-13.49 0.8,-8 -0.42,-15.99 -0.2,-23.99 0.03,-29.67 -0.02,-59.34 0.02,-89 0.43,-8.01 0.68,-16.04 0.37,-24.06 -0.38,-3.34 -0.7,-7.3 -3.68,-9.44 -3.87,-2.86 -8.98,-2.19 -13.5,-2.31 -6.55,0.21 -13.14,-0.41 -19.66,0.39 z"
   id="path1" />
</g>
<g
   id="g4"
   transform="translate(1876.3132,361.26264)">
	<g
   id="g2"
   transform="matrix(0.55178331,0,0,0.54771841,-1178.5352,-461.86584)">
		<path
   class="st1"
   d="m -808.34,190.58 c 52.75,-0.93 111.67,6.72 160.82,26.87 42.21,17.3 89.3,37.14 124.8,67.32 34.99,29.75 75.36,61.94 99.11,101.99 3.51,5.72 8,10.78 11.52,16.5 20.79,33.78 40.71,70.21 51.5,108.59 2.16,7.79 4.95,15.4 6.76,23.29 2.51,9.06 3.61,18.44 6.44,27.42 2.86,8.96 2.69,18.48 4.54,27.64 2.58,12.33 3.53,24.95 3.6,37.53 3.48,43.74 -0.29,87.96 -10.47,130.62 -19.1,80.05 -59.95,152.51 -116.14,212.3 -28.27,30.08 -59.94,55.25 -94.78,77.25 -85.95,54.29 -191.03,75.43 -291.26,64.14 -92.85,-10.46 -176.48,-49.3 -248.26,-108.4 C -1269.5,864.22 -1310,614.41 -1201.6,425.99 c 6.77,-11.77 13.9,-23.33 21.25,-34.74 5.05,-7.84 10.66,-15.28 16.57,-22.49 6.04,-7.9 11.84,-16.07 19.12,-22.91 4.83,-4.54 8.8,-9.88 13.63,-14.41 7.11,-6.21 12.97,-13.68 20.34,-19.62 11.78,-12.45 25.8,-22.39 39.46,-32.62 8.89,-5.75 17.17,-12.38 26.33,-17.73 9.83,-6.44 20.48,-11.47 30.65,-17.34 5.8,-3.44 12.12,-5.83 18.12,-8.88 13.18,-6.74 27.15,-11.73 40.92,-17.1 5.91,-2.45 12.04,-4.32 18.27,-5.75 7.07,-1.59 13.75,-4.52 20.78,-6.27 34.51,-9.05 71.3,-14.91 107.82,-15.55 z m -9.96,159.77 c -7.6,1.1 -14.21,5.27 -21.5,7.39 -13.51,4.9 -26.46,11.21 -39.18,17.85 -6.08,3.21 -12.94,4.3 -19.34,6.64 -9.24,3.27 -17.54,8.61 -26.5,12.49 -8.33,3.56 -16.28,7.98 -24.74,11.21 -5.19,1.59 -10.33,3.35 -15.15,5.86 -10.04,5.17 -20.22,10.1 -30.72,14.26 -15.21,4.81 -29.34,12.38 -43.61,19.41 -4.58,2.24 -9.67,3.01 -14.47,4.64 -15.96,5.62 -30.41,14.65 -46.11,20.88 -8.75,4.77 -18.57,6.95 -27.42,11.49 -9.96,4.16 -19.29,9.69 -29.29,13.77 -10.88,4.41 -20.43,12.82 -25.32,23.58 -3.09,8.79 -3.09,18.47 -1.51,27.58 2.01,9.66 9.66,16.96 17.55,22.28 6.28,4.17 14.08,4.62 21.38,4.53 16.1,-0.19 30.13,-9.01 44.17,-15.79 8.03,-4.51 17.48,-5.22 25.65,-9.39 4.06,-1.84 8.04,-4.53 12.64,-4.59 3.79,1.21 3.95,5.99 4.17,9.31 0.05,126.68 0,253.37 0.02,380.05 0.05,8.34 0.29,17.11 4.19,24.7 3.73,7.48 9.38,13.86 15.62,19.36 5.4,4.78 12.14,7.58 18.79,10.16 5.5,2.11 11.3,3.58 17.22,3.63 11.68,0.63 23.37,-0.18 35.05,0.05 14.67,0.4 29.34,0.2 44.01,-0.02 97,0.13 194,-0.26 291,-0.19 14.26,-0.08 28.56,0.45 42.76,-1.16 5.51,-0.89 10.73,-2.99 15.94,-4.9 9.58,-3.46 16.9,-10.99 23.27,-18.65 5.35,-6.43 8.32,-14.62 8.81,-22.93 0.36,-8.74 1.26,-17.48 0.45,-26.21 0.27,-8.88 0.53,-17.77 0.23,-26.66 -0.81,-9.28 0.69,-18.57 -0.03,-27.86 -1.07,-10.76 0.67,-21.52 0.04,-32.29 -0.65,-8.33 -0.38,-16.69 -0.15,-25.02 -0.39,-10.66 -0.38,-21.33 0.23,-31.97 0.03,-71.69 0,-143.39 0.02,-215.08 0.08,-3.29 0.14,-7.29 3.12,-9.4 2.18,-1.69 5,-0.26 7.38,0.21 8.89,2.92 18.05,5.26 26.32,9.78 8.9,4.73 18.12,8.82 27.52,12.44 8.18,2.72 17.07,2.53 25.51,1.3 11.15,-1.7 19.63,-10.4 25.12,-19.73 4.73,-7.87 4.89,-17.44 4.01,-26.31 -1.31,-8.95 -7.66,-15.88 -13.58,-22.24 -7.58,-7.23 -17.89,-10.2 -26.97,-14.99 -10.63,-5.53 -21.73,-10.09 -32.37,-15.6 -6.07,-3.2 -12.84,-4.55 -19.24,-6.83 -9.91,-4.29 -19.85,-8.51 -29.4,-13.56 -7.27,-4 -15.61,-5.29 -23.01,-8.98 -12.26,-5.86 -24.11,-12.75 -37.13,-16.86 -13.12,-3.97 -25.38,-10.24 -37.53,-16.49 -4.3,-2.31 -8.85,-4.11 -13.57,-5.32 -8.43,-2.18 -15.99,-6.59 -23.83,-10.23 -13.35,-5.61 -25.77,-13.56 -39.94,-17.1 -6.91,-1.67 -12.68,-5.97 -19.02,-8.97 -8.29,-4.3 -16.97,-7.78 -25.58,-11.37 -8.98,-3.2 -17.62,-8.03 -27.35,-8.47 -9.53,-0.32 -19.14,-0.82 -28.63,0.31 z"
   id="path2" />
	</g>
	<path
   class="st1"
   d="m -1624.0065,-223.56451 c 4.7895,-1.27619 9.3197,1.36382 13.6235,3.06722 10.1087,4.10788 20.0243,8.65943 30.0888,12.87139 11.9902,5.62507 24.444,10.22589 36.4177,15.88382 5.1757,2.45379 10.5059,4.56251 15.792,6.75885 2.4003,1.06258 5.1371,2.38806 5.9758,5.07735 1.0374,3.18224 0.607,6.5781 0.6953,9.86441 0.061,65.91791 -0.1545,131.835818 -0.072,197.753724 -0.055,1.856782 -0.077,3.866894 -1.1202,5.488155 -1.2028,1.429537 -3.2224,1.823891 -5.0102,1.812935 -8.2988,0.01091 -16.5976,-0.02181 -24.8909,0.0055 -3.5093,0.0931 -7.1953,0.690106 -10.5446,-0.629875 -2.2292,-1.133784 -2.2733,-3.981928 -2.323,-6.139942 -0.011,-27.2161128 0,-54.426771 0.044,-81.63742 0.16,-9.8425 -2.8141,-19.82193 -8.9941,-27.599531 -3.7908,-5.186893 -9.0051,-9.2181 -14.6664,-12.225074 -7.9843,-3.905234 -17.0832,-4.5132 -25.84,-4.326974 -10.357,0.158836 -21.034,-0.810625 -31.0323,2.4483 -7.7526,2.771455 -14.854,7.679011 -19.7483,14.306405 -2.7424,3.67519 -5.3192,7.580422 -6.6104,12.016942 -1.8043,6.041332 -2.1023,12.411297 -2.0471,18.677197 -0.01,24.46658 0.088,48.9276844 0.039,73.394279 -0.083,2.678332 0.1766,5.395008 -0.3697,8.040497 -0.2704,1.314529 -0.8884,2.787889 -2.2623,3.280843 -3.1507,0.953017 -6.4559,0.410761 -9.6783,0.388875 -7.5539,-0.0055 -15.1078,-0.09313 -22.6617,-0.02181 -1.8816,-0.0055 -4.006,0.03287 -5.5123,-1.270706 -2.6266,-2.749543 -1.5781,-6.983403 -1.8485,-10.417599 0.01,-67.380327 -0.01,-134.760651 0.01,-202.140971 -0.1987,-3.2644 2.2899,-5.90988 5.1426,-7.11486 9.0879,-4.23386 18.4847,-7.77761 27.5119,-12.14292 8.045,-3.27536 16.0072,-6.73145 23.9805,-10.18756 6.3014,-2.95768 12.8731,-5.3074 19.1469,-8.32532 5.6006,-2.28398 10.975,-5.17046 16.7687,-6.95602 z"
   id="path3"
   style="stroke-width:0.549747" />
	<path
   class="st1"
   d="m -1627.8855,-55.250649 c 3.5976,-0.438171 7.2339,-0.09858 10.848,-0.213607 2.4941,0.06573 5.3137,-0.301249 7.4491,1.265227 1.6443,1.172119 1.8209,3.341083 2.0306,5.170464 0.171,4.392699 0.033,8.79088 -0.2042,13.178105 -0.022,16.245331 0.01,32.496139 -0.011,48.746946 -0.1214,4.381736 0.5517,8.758017 0.1103,13.139753 -0.2759,2.442835 0.2373,5.093777 -0.8552,7.388711 -1.545,2.470224 -4.8502,2.289481 -7.405,2.360692 -4.3039,-0.142423 -8.6685,0.334098 -12.9227,-0.449131 -2.941,-0.569644 -3.3273,-4.085983 -3.2887,-6.517862 0.1214,-25.7701423 -0.16,-51.540302 -0.022,-77.31045 -0.1876,-2.809798 1.0429,-6.375443 4.2708,-6.758848 z"
   id="path4"
   style="stroke-width:0.549747" />
</g>
<polygon
   class="st0"
   points="-850.03,361.74 -871.11,403.19 -1041.28,473.97 -1142.92,509.36 -1156.33,496.24 "
   id="polygon4"
   transform="matrix(0.55178331,0,0,0.54771841,697.77797,-100.6032)" />
<polygon
   class="st1"
   points="-839.8,357.74 -964.85,361.74 -1100.38,415.24 -1143.68,434.46 -1127.04,482.47 "
   id="polygon5"
   transform="matrix(0.55178331,0,0,0.54771841,697.77797,-100.6032)" />
<polygon
   class="st0"
   points="-461.7,489.82 -645.98,463.43 -766.51,356.91 "
   id="polygon6"
   transform="matrix(0.55178331,0,0,0.54771841,697.77797,-100.6032)" />
<polygon
   class="st1"
   points="-476.9,482.47 -507.44,415.24 -684.38,331.29 -762.32,336.93 -762.32,358.51 "
   id="polygon7"
   transform="matrix(0.55178331,0,0,0.54771841,697.77797,-100.6032)" />
</svg>
